<?xml version="1.0" standalone="no"?>
<!DOCTYPE svg PUBLIC "-//W3C//DTD SVG 20010904//EN"
 "http://www.w3.org/TR/2001/REC-SVG-20010904/DTD/svg10.dtd">
<svg version="1.0" xmlns="http://www.w3.org/2000/svg"
 width="1280.000000pt" height="722.000000pt" viewBox="0 0 1280.000000 722.000000"
 preserveAspectRatio="xMidYMid meet">
<metadata>
Created by potrace 1.15, written by Peter Selinger 2001-2017
</metadata>
<g transform="translate(0.000000,722.000000) scale(0.100000,-0.100000)"
fill="#000000" stroke="none">
<path d="M4900 7194 c-25 -2 -112 -8 -195 -14 -563 -41 -1345 -160 -1810 -276
-489 -122 -759 -228 -1010 -396 -779 -522 -895 -606 -1051 -762 -108 -108
-112 -114 -142 -198 -33 -92 -94 -316 -137 -505 -24 -105 -30 -120 -99 -225
-183 -279 -329 -607 -386 -864 -29 -128 -29 -345 0 -667 20 -233 20 -252 -14
-343 -43 -117 -28 -315 41 -529 36 -112 46 -159 50 -236 5 -91 4 -101 -31
-203 -60 -173 -86 -303 -93 -462 -10 -246 23 -382 156 -639 100 -194 244 -425
257 -413 2 2 -7 60 -20 129 -42 222 -51 301 -51 484 0 174 1 183 32 285 51
168 74 294 80 442 7 163 -3 225 -57 355 -45 108 -102 281 -131 397 -14 57 -23
140 -29 281 -9 193 -18 265 -57 460 -14 70 -17 139 -17 315 0 195 3 239 22
329 31 142 76 279 128 386 41 85 113 210 119 203 1 -2 -4 -46 -11 -98 -30
-221 -17 -287 131 -690 284 -772 322 -860 427 -964 41 -42 97 -85 128 -101 82
-41 108 -63 130 -105 26 -50 26 -116 0 -208 -11 -39 -20 -81 -20 -93 0 -11
-14 -51 -30 -89 -26 -59 -30 -80 -30 -157 1 -98 0 -97 63 -313 59 -206 83
-341 103 -602 12 -158 15 -246 8 -320 -10 -121 -10 -193 -1 -229 4 -14 29 -54
57 -89 42 -52 50 -69 50 -104 0 -64 18 -114 57 -157 30 -34 41 -39 77 -39 23
0 47 5 53 11 18 18 30 3 37 -49 7 -52 20 -69 73 -96 27 -14 73 -16 297 -16
256 0 266 1 285 21 13 14 26 19 40 14 35 -11 38 22 5 56 -35 37 -67 54 -158
85 -38 13 -80 31 -93 39 -30 20 -59 79 -68 138 -5 34 -20 65 -50 105 -23 31
-47 67 -54 79 -16 31 -30 283 -31 530 0 173 3 210 20 265 11 34 20 74 20 88 0
36 11 70 21 70 5 0 9 -32 9 -71 0 -65 4 -79 54 -182 30 -62 69 -159 87 -217
17 -58 55 -163 84 -235 29 -71 55 -146 59 -166 7 -41 26 -62 77 -83 44 -19 56
-33 78 -93 l17 -48 78 -5 79 -5 12 -48 c7 -26 23 -59 35 -72 l23 -25 283 0
c278 0 284 0 304 22 43 47 16 76 -118 128 -59 23 -129 54 -156 68 -52 28 -137
116 -190 197 -51 76 -125 326 -177 595 -25 129 -30 317 -11 363 7 16 53 92
104 170 146 226 190 317 223 460 20 88 45 260 45 318 l0 45 88 -4 c72 -3 97 0
147 18 33 12 95 31 139 43 113 30 170 18 356 -73 209 -103 343 -185 425 -262
83 -77 105 -88 181 -88 99 0 119 15 214 161 93 143 256 273 400 318 124 39
418 89 740 127 74 8 250 18 390 21 218 5 286 2 470 -16 548 -56 818 -115 923
-202 73 -60 99 -140 147 -449 33 -215 53 -306 81 -362 10 -20 67 -88 125 -150
168 -178 218 -268 269 -483 36 -150 55 -299 55 -430 l0 -117 44 -81 c50 -93
91 -202 110 -297 l13 -65 70 -3 c79 -3 83 0 83 81 0 47 12 48 29 2 18 -50 55
-90 98 -108 33 -12 83 -13 376 -2 218 7 341 15 348 22 7 7 9 22 5 35 -4 17
-33 37 -109 76 -117 60 -206 126 -243 180 -64 95 -171 275 -210 355 -62 127
-77 206 -70 364 3 70 9 252 12 403 l5 275 96 273 c91 257 97 272 121 272 60 0
239 -33 273 -51 21 -10 89 -51 151 -90 108 -69 231 -135 294 -159 16 -7 72
-16 124 -21 186 -18 300 -58 460 -162 130 -84 363 -201 466 -233 105 -33 185
-30 303 11 l80 28 89 -21 c102 -25 171 -28 227 -7 66 23 175 18 325 -16 248
-57 405 -49 546 25 35 19 90 40 121 47 51 12 58 17 72 50 12 28 25 39 55 50
44 15 49 23 97 141 19 48 45 92 69 117 21 22 46 51 55 64 19 30 55 174 55 222
0 62 -63 93 -225 107 -27 3 -35 13 -83 103 -71 133 -101 177 -221 323 -190
231 -236 312 -253 444 -13 104 -18 86 60 228 47 87 49 98 38 205 -7 79 -7 82
33 181 49 120 53 189 20 317 -11 44 -18 91 -15 104 13 49 68 94 183 148 175
83 243 158 294 325 33 107 33 259 -1 395 -42 171 -81 185 -197 73 -93 -90
-119 -133 -137 -229 -30 -156 -71 -224 -152 -253 l-41 -14 -7 140 c-5 94 -15
174 -32 242 -13 56 -24 113 -24 127 0 14 -6 33 -13 44 -17 22 -40 19 -156 -26
-76 -29 -91 -39 -175 -124 -103 -104 -171 -154 -221 -162 -27 -4 -47 2 -98 30
-127 71 -296 206 -624 497 -387 344 -971 775 -1231 909 -217 111 -703 265
-1072 340 -387 78 -719 110 -1390 131 -344 11 -409 16 -775 65 -458 62 -522
66 -935 70 -212 1 -405 1 -430 -1z"/>
</g>
</svg>
